# File produced by Open Asset Import Library (http://www.assimp.sf.net)
# (assimp v3.1.187496374)

mtllib axe_belt.obj.mtl

# 150 vertex positions
v  12.8986 84.9058 10.2128
v  15.3879 86.4768 5.432
v  13.4292 75.4395 6.25469
v  3.52889 74.5814 7.74742
v  15.2328 76.1757 1.63953
v  18.8716 88.1104 0.04452
v  18.2718 77.3826 -2.86614
v  20.9306 79.9691 -13.5591
v  21.6986 91.8558 -10.5478
v  14.659 95.157 -20.6628
v  13.7948 82.4227 -23.8367
v  -0.337224 95.7233 -23.8512
v  -0.370221 83.6181 -27.0051
v  -12.8076 94.6552 -21.2371
v  -12.3366 82.4068 -24.3963
v  -21.6953 93.0579 -13.6363
v  -20.2445 80.6053 -16.6292
v  -21.8903 90.9652 -6.81322
v  -20.6994 79.0355 -9.62125
v  -18.5568 87.7639 -0.940377
v  -18.0494 76.4357 -3.52185
v  -10.973 83.9799 4.77621
v  -12.2874 74.0218 1.61683
v  -3.58836 79.8613 12.9799
v  -5.84405 70.686 9.63697
v  7.36122 75.6604 16.1692
v  4.95926 66.5748 13.3808
v  13.1675 73.8697 13.3946
v  9.82966 65.0705 11.7985
v  13.941 74.0866 9.01657
v  10.0438 64.4925 7.38269
v  12.9452 74.7855 5.87545
v  -0.092689 84.366 8.99094
v  -2.70125 74.0946 5.11223
v  -1.7705 73.8529 9.56536
v  -4.14466 84.2724 5.23365
v  22.0985 85.6676 1.9953
v  25.7735 90.1127 -10.8557
v  18.5263 83.2662 8.21311
v  21.7882 77.9332 -0.198988
v  25.3006 81.7317 -13.2162
v  17.0767 93.6418 -24.1427
v  16.9728 84.8665 -26.3526
v  18.5239 76.116 5.37285
v  13.5048 75.1548 9.50521
v  13.008 82.073 12.5909
v  1.59711 74.2936 11.8864
v  0.577405 82.3362 13.4743
v  -5.52254 74.3977 9.95724
v  -6.67524 81.5164 10.5013
v  -0.15419 85.9147 -30.8734
v  -0.109266 95.5098 -28.096
v  -14.1601 85.1172 -27.6501
v  -14.408 94.8289 -24.8404
v  -25.374 91.7627 -15.6719
v  -24.3684 81.7413 -18.1344
v  -26.0544 89.2458 -6.72894
v  -25.4113 79.5694 -8.87278
v  -22.3617 86.0541 1.4462
v  -14.1146 82.0017 8.01873
v  -22.3997 76.8674 -0.389784
v  -15.3602 74.0573 5.76323
v  -7.09144 71.157 12.8014
v  -5.50408 78.3736 15.1866
v  4.29155 67.0937 16.5154
v  6.13742 74.3248 18.727
v  12.3647 64.8575 13.3491
v  14.9652 71.8329 14.7103
v  15.9703 72.9407 7.63891
v  12.9506 64.9086 6.10323
v  13.5632 73.0222 3.55822
v  5.85212 67.5372 2.7618
v  2.82724 68.1161 4.57015
v  5.8773 59.2852 11.6364
v  5.27102 59.5916 7.32802
v  0.454832 58.1848 11.5291
v  11.031 58.3729 10.2029
v  5.47009 51.3378 11.1946
v  10.8188 52.4147 10.1162
v  -0.084266 58.488 7.71562
v  0.279548 52.4615 11.1359
v  5.03707 51.3902 7.38066
v  -0.094366 52.5035 7.73277
v  10.8045 58.3981 6.9445
v  10.599 52.4272 6.97616
v  -15.6263 74.5215 8.75088
v  -16.1325 76.0171 8.75088
v  -7.42193 77.216 7.61187
v  -7.97834 78.8598 7.61187
v  -15.444 74.5832 10.3182
v  -7.2216 77.2838 9.33435
v  -15.9503 76.0788 10.3182
v  -7.77799 78.9276 9.33435
v  -7.59997 78.0718 8.47311
v  -11.5221 81.6431 8.56985
v  -11.5562 81.8333 7.30314
v  -7.8172 82.1151 8.68682
v  -13.5417 80.24 8.44404
v  -12.2871 82.9284 10.1131
v  -7.74817 82.3182 7.41045
v  -7.42337 83.4523 10.2652
v  -14.907 80.9817 9.94818
v  -13.3117 84.9505 8.43112
v  -6.71161 85.672 8.62652
v  -3.54996 76.3336 9.92149
v  -1.42853 75.9946 8.15545
v  -16.883 82.3206 8.19216
v  -17.2798 76.4661 7.82574
v  -15.1783 76.6918 9.68139
v  -12.771 72.1652 9.45912
v  -13.992 70.3246 7.52488
v  -13.6886 76.9953 8.24241
v  -11.8792 73.52 8.07095
v  -7.93099 71.7553 9.53184
v  -7.39895 69.7721 7.63809
v  -8.25796 73.3181 8.13627
v  -8.20025 73.2729 6.85368
v  -11.9387 73.5072 6.77352
v  -4.74798 76.7737 7.13644
v  -4.89987 76.7212 8.42493
v  -13.8 77.0782 6.94943
v  -13.632 80.3914 7.1569
v  12.9362 83.8824 10.2921
v  2.34639 82.6508 11.4237
v  12.6072 80.8251 10.1875
v  2.38191 83.5734 12.9695
v  14.0761 84.5585 11.4493
v  1.402 79.8517 9.48979
v  11.7841 81.474 5.96645
v  0.797759 81.1865 7.00701
v  12.2006 88.0312 8.81251
v  12.2726 87.8098 13.5482
v  3.7719 86.0731 13.9715
v  1.69223 85.2582 9.27357
v  4.12861 81.533 17.0292
v  13.5784 83.1895 15.7217
v  2.37837 80.3952 13.5995
v  3.39615 73.8202 14.6877
v  12.9531 75.2862 13.352
v  1.51602 73.6656 10.2074
v  11.5438 66.5904 10.4009
v  2.23482 65.5384 11.9728
v  12.613 75.5544 8.90571
v  14.439 82.2306 12.0624
v  9.3262 56.2056 9.99506
v  9.99627 56.2778 7.95509
v  11.4836 66.4517 7.12851
v  0.623209 65.5152 8.39306
v  1.91809 55.9037 10.9691
v  1.13976 55.9683 8.69649

# 226 UV coordinates
vt 0.651867 0.155188 0
vt 0.665706 0.139152 0
vt 0.664546 0.191234 0
vt 0.644094 0.219576 0
vt 0.676486 0.178601 0
vt 0.677966 0.124947 0
vt 0.687062 0.167411 0
vt 0.720023 0.135608 0
vt 0.711572 0.088152 0
vt 0.743441 0.064556 0
vt 0.749617 0.115598 0
vt 0.783768 0.042382 0
vt 0.78666 0.095057 0
vt 0.816613 0.029357 0
vt 0.816914 0.083693 0
vt 0.850612 0.021424 0
vt 0.848211 0.075258 0
vt 0.869217 0.023178 0
vt 0.866521 0.074741 0
vt 0.890484 0.025182 0
vt 0.88745 0.074149 0
vt 0.915151 0.03966 0
vt 0.906844 0.083177 0
vt 0.940901 0.055456 0
vt 0.929195 0.09601 0
vt 0.965596 0.079629 0
vt 0.953129 0.118288 0
vt 0.977556 0.097909 0
vt 0.962647 0.131901 0
vt 0.984973 0.111838 0
vt 0.968436 0.146425 0
vt 0.989787 0.119403 0
vt 0.627669 0.19653 0
vt 0.626654 0.241531 0
vt 0.634979 0.240777 0
vt 0.615172 0.219478 0
vt 0.21136 0.946478 0
vt 0.172857 0.94872 0
vt 0.206641 0.898166 0
vt 0.27796 0.903086 0
vt 0.280101 0.950348 0
vt 0.168558 0.893359 0
vt 0.139871 0.932401 0
vt 0.20469 0.809308 0
vt 0.27768 0.808775 0
vt 0.361619 0.901448 0
vt 0.278908 0.758233 0
vt 0.20752 0.760759 0
vt 0.361134 0.803625 0
vt 0.172935 0.759641 0
vt 0.17011 0.811628 0
vt 0.143318 0.782701 0
vt 0.136645 0.814483 0
vt 0.082813 0.778174 0
vt 0.133775 0.896647 0
vt 0.073353 0.820607 0
vt 0.072734 0.911251 0
vt 0.039275 0.839599 0
vt 0.049328 0.809653 0
vt 0.063226 0.958551 0
vt 0.038242 0.905304 0
vt 0.020914 0.950276 0
vt 0.01574 0.819049 0
vt 0.454451 0.803466 0
vt 0.452316 0.911968 0
vt 0.363256 0.949654 0
vt 0.364354 0.753405 0
vt 0.457189 0.755191 0
vt 0.529891 0.813205 0
vt 0.532495 0.763718 0
vt 0.607022 0.772499 0
vt 0.527011 0.922939 0
vt 0.600422 0.929159 0
vt 0.603714 0.818974 0
vt 0.52663 0.965483 0
vt 0.600768 0.974282 0
vt 0.452622 0.958151 0
vt 0.645801 0.934287 0
vt 0.645891 0.981138 0
vt 0.652095 0.827843 0
vt 0.692522 0.980521 0
vt 0.692768 0.930811 0
vt 0.751067 0.921501 0
vt 0.699623 0.832606 0
vt 0.74997 0.828433 0
vt 0.698877 0.776517 0
vt 0.808905 0.82597 0
vt 0.746983 0.771812 0
vt 0.807329 0.793216 0
vt 0.812476 0.91393 0
vt 0.875966 0.813432 0
vt 0.877735 0.902921 0
vt 0.877865 0.785255 0
vt 0.914565 0.777014 0
vt 0.918643 0.804171 0
vt 0.926007 0.884269 0
vt 0.885057 0.931252 0
vt 0.815024 0.948396 0
vt 0.750926 0.976318 0
vt 0.928059 0.912567 0
vt 0.959776 0.873645 0
vt 0.960358 0.8996 0
vt 0.947295 0.757596 0
vt 0.951046 0.784075 0
vt 0.976392 0.849416 0
vt 0.980745 0.758378 0
vt 0.982569 0.871158 0
vt 0.991703 0.734024 0
vt 0.65335 0.776969 0
vt 0.984852 0.169166 0
vt 0.116073 0.295927 0
vt 0.110232 0.382993 0
vt 0.064298 0.268796 0
vt 0.171509 0.263382 0
vt 0.123766 0.102184 0
vt 0.177036 0.128981 0
vt 0.035479 0.306925 0
vt 0.070924 0.135496 0
vt 0.12628 0.019785 0
vt 0.046466 0.102457 0
vt 0.194356 0.293827 0
vt 0.202201 0.095349 0
vt 0.278491 0.316048 0
vt 0.288416 0.046595 0
vt 0.361624 0.264599 0
vt 0.366388 0.068442 0
vt 0.971495 0.409253 0
vt 0.973933 0.501683 0
vt 0.69916 0.36225 0
vt 0.701841 0.463838 0
vt 0.951052 0.645559 0
vt 0.729684 0.624444 0
vt 0.94881 0.58862 0
vt 0.971612 0.681648 0
vt 0.727183 0.560928 0
vt 0.712477 0.496067 0
vt 0.966696 0.556767 0
vt 0.705379 0.590148 0
vt 0.719978 0.686615 0
vt 0.673382 0.408817 0
vt 0.525351 0.362534 0
vt 0.535541 0.377013 0
vt 0.487472 0.430108 0
vt 0.559147 0.348106 0
vt 0.515751 0.323997 0
vt 0.498786 0.441346 0
vt 0.467118 0.414587 0
vt 0.561039 0.307765 0
vt 0.503365 0.2603 0
vt 0.437261 0.383007 0
vt 0.514921 0.634017 0
vt 0.502098 0.68166 0
vt 0.564842 0.237684 0
vt 0.63554 0.343885 0
vt 0.612671 0.385991 0
vt 0.643557 0.524361 0
vt 0.677255 0.532074 0
vt 0.597689 0.40848 0
vt 0.621741 0.513908 0
vt 0.605879 0.632676 0
vt 0.625847 0.679524 0
vt 0.594065 0.603438 0
vt 0.586678 0.577657 0
vt 0.606523 0.505101 0
vt 0.529668 0.584313 0
vt 0.522525 0.602561 0
vt 0.587152 0.4185 0
vt 0.560124 0.372404 0
vt 0.551296 0.512477 0
vt 0.545352 0.534554 0
vt 0.541514 0.493706 0
vt 0.566682 0.521225 0
vt 0.528302 0.50082 0
vt 0.572019 0.54911 0
vt 0.542009 0.474265 0
vt 0.528687 0.46659 0
vt 0.549544 0.450249 0
vt 0.54212 0.425591 0
vt 0.584383 0.447949 0
vt 0.573694 0.463211 0
vt 0.57627 0.501455 0
vt 0.589347 0.515005 0
vt 0.784064 0.174189 0
vt 0.775913 0.258811 0
vt 0.760197 0.178253 0
vt 0.790345 0.256765 0
vt 0.794297 0.16961 0
vt 0.757403 0.266845 0
vt 0.752408 0.187686 0
vt 0.752259 0.25599 0
vt 0.023138 0.473036 0
vt 0.016757 0.510259 0
vt 0.074978 0.446277 0
vt 0.072874 0.474127 0
vt 0.106484 0.424795 0
vt 0.110771 0.46036 0
vt 0.125382 0.609256 0
vt 0.081492 0.625077 0
vt 0.164038 0.622454 0
vt 0.153236 0.457237 0
vt 0.124725 0.637593 0
vt 0.164361 0.652725 0
vt 0.228509 0.639078 0
vt 0.223437 0.457281 0
vt 0.230421 0.677947 0
vt 0.304211 0.492675 0
vt 0.30747 0.637924 0
vt 0.226144 0.420411 0
vt 0.151357 0.423151 0
vt 0.401233 0.518075 0
vt 0.4092 0.490076 0
vt 0.308874 0.447078 0
vt 0.309352 0.682801 0
vt 0.400719 0.652282 0
vt 0.406638 0.678782 0
vt 0.040042 0.658912 0
vt 0.088653 0.650367 0
vt 0.050548 0.684318 0
vt 0.813726 0.182423 0
vt 0.808253 0.267288 0
vt 0.846107 0.203777 0
vt 0.838101 0.284826 0
vt 0.88499 0.231081 0
vt 0.874859 0.31028 0
vt 0.931697 0.266473 0
vt 0.920331 0.338282 0

# 150 vertex normals
vn -0.273405 0.956749 -0.099401
vn -0.477131 0.87482 0.083876
vn -0.326279 -0.685546 -0.650821
vn 0.241493 -0.769413 -0.591341
vn -0.583114 -0.664706 -0.46706
vn -0.485266 0.871028 0.076329
vn -0.554921 -0.696801 -0.454457
vn -0.538924 -0.833564 -0.121374
vn -0.457497 0.825564 0.330363
vn -0.240359 0.747933 0.618727
vn -0.293543 -0.925912 0.237737
vn 0.023519 0.657807 0.752819
vn 0.009341 -0.941073 0.338073
vn 0.259318 0.667348 0.698141
vn 0.290148 -0.913962 0.283704
vn 0.449828 0.776443 0.441352
vn 0.579367 -0.814032 0.04107
vn 0.539383 0.82389 0.173989
vn 0.639801 -0.691044 -0.336322
vn 0.560837 0.827403 -0.029417
vn 0.457691 -0.634882 -0.622449
vn 0.573481 0.808803 -0.13022
vn 0.364989 -0.66421 -0.652387
vn 0.516091 0.832852 -0.20002
vn 0.212742 -0.691223 -0.690617
vn 0.300859 0.901368 -0.311481
vn -0.222437 -0.629754 -0.744266
vn -0.047656 0.989338 -0.137619
vn -0.673191 -0.618985 -0.404563
vn -0.074396 0.947453 0.311124
vn -0.769619 -0.610383 0.187399
vn -0.141997 0.989696 -0.018392
vn 0.075033 0.926399 -0.368991
vn -0.162635 -0.790062 -0.59106
vn -0.001116 -0.998413 0.056312
vn -0.434915 0.638387 -0.635068
vn 0.779983 0.4082 0.474342
vn 0.835889 0.548277 0.026114
vn 0.677409 0.315917 0.664314
vn 0.735409 -0.668385 0.111511
vn 0.784026 -0.556242 -0.275496
vn 0.508914 0.691125 -0.51318
vn 0.482295 -0.41006 -0.774107
vn 0.583063 -0.759963 0.287219
vn 0.30654 -0.819609 0.484019
vn 0.364235 0.300501 0.881494
vn -0.018965 -0.844622 0.535027
vn -0.155282 0.394106 0.905852
vn -0.520177 -0.808729 0.274542
vn -0.823324 0.331124 0.460971
vn 0.012852 -0.350523 -0.936466
vn 0.022886 0.773393 -0.633513
vn -0.364879 -0.399388 -0.841043
vn -0.380168 0.763178 -0.522525
vn -0.747333 0.637018 -0.188947
vn -0.659441 -0.564763 -0.496167
vn -0.809493 0.501222 0.305774
vn -0.74221 -0.664727 -0.085218
vn -0.578919 0.463838 0.670602
vn -0.431399 0.456965 0.777867
vn -0.678285 -0.703866 0.210956
vn -0.605131 -0.695239 0.387889
vn -0.526137 -0.689334 0.497994
vn -0.298686 0.430486 0.851745
vn -0.20106 -0.754762 0.624428
vn 0.166554 0.317382 0.933557
vn 0.337097 -0.860332 0.382353
vn 0.776977 0.260903 0.57292
vn 0.919763 0.30336 -0.249015
vn 0.420085 -0.83809 -0.348042
vn 0.356886 0.526139 -0.771887
vn -0.02358 -0.280459 -0.959576
vn -0.978463 0.003156 -0.206397
vn 0.077616 0.660092 0.747165
vn -0.052219 0.719917 -0.692093
vn -0.617065 0.474702 0.627605
vn 0.74231 0.467375 0.480142
vn 0.067518 -0.72511 0.685315
vn 0.716961 -0.538453 0.442759
vn -0.709915 0.554342 -0.434426
vn -0.623213 -0.524429 0.580156
vn -0.058956 -0.698021 -0.713647
vn -0.700908 -0.533376 -0.473538
vn 0.623617 0.523123 -0.5809
vn 0.596821 -0.547302 -0.586741
vn -0.431498 -0.751923 -0.498419
vn -0.799486 0.335253 -0.498425
vn 0.849587 -0.146006 -0.506838
vn 0.586234 0.63201 -0.506846
vn -0.299009 -0.707084 0.640801
vn 0.944404 -0.113917 0.308422
vn -0.667007 0.380108 0.640796
vn 0.68106 0.664108 0.308411
vn 0.940148 0.318225 -0.121875
vn 0.330786 -0.895985 0.296295
vn 0.218792 -0.463143 -0.858853
vn -0.450617 -0.842907 0.294028
vn 0.809911 -0.468132 0.353407
vn -0.005931 -0.102057 0.994761
vn -0.180748 -0.376532 -0.9086
vn -0.041431 -0.095574 0.99456
vn 0.017133 -0.079884 0.996657
vn -0.344417 0.923329 -0.169824
vn 0.493675 0.844808 -0.206362
vn -0.063041 -0.055054 0.996491
vn 0.960368 -0.084745 -0.265541
vn -0.851635 0.476397 -0.218548
vn -0.94822 -0.193314 -0.252007
vn 0.028658 -0.048819 0.998396
vn 0.001507 -0.023792 0.999716
vn -0.528091 -0.793822 -0.301608
vn 0.913806 0.180653 0.363763
vn 0.499734 0.755851 0.423032
vn -0.038504 -0.017738 0.999101
vn 0.367378 -0.884336 -0.288068
vn -0.348763 0.853226 0.387774
vn -0.16394 0.540422 -0.825269
vn 0.293264 0.477786 -0.82808
vn -0.435189 0.130676 -0.890806
vn -0.937241 0.100282 0.333949
vn 0.551219 0.166995 -0.817478
vn 0.472592 -0.20131 -0.857981
vn 0.85261 -0.360345 0.378427
vn -0.611982 -0.345131 0.711592
vn 0.621918 -0.750073 0.224965
vn -0.919164 -0.377194 0.113411
vn 0.93831 -0.23024 -0.258001
vn -0.476747 -0.693558 0.540083
vn 0.503503 -0.286925 -0.814959
vn -0.722753 -0.316986 -0.614124
vn 0.565886 0.649513 -0.507845
vn 0.577345 0.756875 0.306289
vn -0.644148 0.5794 0.499369
vn -0.796869 0.593437 -0.11328
vn -0.507659 0.098135 0.855951
vn 0.700694 0.103789 0.705872
vn -0.89676 0.152624 -0.415365
vn -0.464264 -0.223233 0.857103
vn 0.741145 -0.303575 0.598788
vn -0.875188 0.251014 -0.413568
vn 0.740755 -0.232688 0.630189
vn -0.482918 -0.142952 0.863918
vn 0.666108 0.144316 -0.73176
vn 0.715296 0.152402 -0.682001
vn 0.5778 -0.623624 0.526536
vn 0.513714 -0.688191 -0.512339
vn 0.672537 -0.052699 -0.738185
vn -0.867545 0.061326 -0.493563
vn -0.390332 -0.590685 0.70621
vn -0.619055 -0.672349 -0.405855

# Mesh '<SMD_root>' with 284 faces
g <SMD_root>
usemtl Texture_0
f  1/1/1 2/2/2 3/3/3
f  4/4/4 1/1/1 3/3/3
f  3/3/3 2/2/2 5/5/5
f  2/2/2 6/6/6 5/5/5
f  5/5/5 6/6/6 7/7/7
f  7/7/7 6/6/6 8/8/8
f  8/8/8 6/6/6 9/9/9
f  9/9/9 10/10/10 8/8/8
f  8/8/8 10/10/10 11/11/11
f  10/10/10 12/12/12 11/11/11
f  11/11/11 12/12/12 13/13/13
f  12/12/12 14/14/14 13/13/13
f  13/13/13 14/14/14 15/15/15
f  16/16/16 17/17/17 14/14/14
f  14/14/14 17/17/17 15/15/15
f  16/16/16 18/18/18 17/17/17
f  17/17/17 18/18/18 19/19/19
f  18/18/18 20/20/20 19/19/19
f  19/19/19 20/20/20 21/21/21
f  20/20/20 22/22/22 21/21/21
f  21/21/21 22/22/22 23/23/23
f  24/24/24 25/25/25 22/22/22
f  22/22/22 25/25/25 23/23/23
f  26/26/26 25/25/25 24/24/24
f  27/27/27 25/25/25 26/26/26
f  26/26/26 28/28/28 27/27/27
f  27/27/27 28/28/28 29/29/29
f  30/30/30 29/29/29 28/28/28
f  31/31/31 29/29/29 30/30/30
f  32/32/32 31/31/31 30/30/30
f  33/33/33 1/1/1 4/4/4
f  4/4/4 34/34/34 33/33/33
f  4/4/4 35/35/35 34/34/34
f  33/33/33 34/34/34 36/36/36
f  6/37/6 2/38/2 37/39/37
f  37/39/37 38/40/38 6/37/6
f  6/37/6 38/40/38 9/41/9
f  37/39/37 2/38/2 39/42/39
f  2/38/2 1/43/1 39/42/39
f  40/44/40 41/45/41 37/39/37
f  37/39/37 41/45/41 38/40/38
f  39/42/39 40/44/40 37/39/37
f  41/45/41 42/46/42 38/40/38
f  42/46/42 9/41/9 38/40/38
f  8/47/8 41/45/41 7/48/7
f  7/48/7 41/45/41 40/44/40
f  43/49/43 42/46/42 41/45/41
f  8/47/8 43/49/43 41/45/41
f  7/48/7 40/44/40 5/50/5
f  44/51/44 3/52/3 5/50/5
f  5/50/5 40/44/40 44/51/44
f  44/51/44 39/42/39 45/53/45
f  45/53/45 3/52/3 44/51/44
f  44/51/44 40/44/40 39/42/39
f  3/52/3 45/53/45 4/54/4
f  45/53/45 39/42/39 46/55/46
f  46/55/46 47/56/47 45/53/45
f  4/54/4 45/53/45 47/56/47
f  39/42/39 1/43/1 46/55/46
f  48/57/48 47/56/47 46/55/46
f  46/55/46 1/43/1 48/57/48
f  47/56/47 48/57/48 49/58/49
f  35/59/35 4/54/4 47/56/47
f  48/57/48 1/43/1 33/60/33
f  33/60/33 50/61/50 48/57/48
f  49/58/49 48/57/48 50/61/50
f  35/59/35 47/56/47 49/58/49
f  36/62/36 50/61/50 33/60/33
f  36/62/36 34/63/34 50/61/50
f  50/61/50 34/63/34 49/58/49
f  35/59/35 49/58/49 34/63/34
f  43/49/43 51/64/51 42/46/42
f  42/46/42 51/64/51 52/65/52
f  42/46/42 52/65/52 10/66/10
f  10/66/10 9/41/9 42/46/42
f  43/49/43 11/67/11 51/64/51
f  11/67/11 43/49/43 8/47/8
f  51/64/51 11/67/11 13/68/13
f  51/64/51 13/68/13 53/69/53
f  53/69/53 52/65/52 51/64/51
f  53/69/53 13/68/13 15/70/15
f  15/70/15 17/71/17 53/69/53
f  54/72/54 53/69/53 55/73/55
f  55/73/55 53/69/53 56/74/56
f  54/72/54 52/65/52 53/69/53
f  14/75/14 54/72/54 16/76/16
f  16/76/16 54/72/54 55/73/55
f  14/75/14 12/77/12 54/72/54
f  54/72/54 12/77/12 52/65/52
f  55/73/55 57/78/57 16/76/16
f  56/74/56 57/78/57 55/73/55
f  16/76/16 57/78/57 18/79/18
f  58/80/58 57/78/57 56/74/56
f  57/78/57 20/81/20 18/79/18
f  58/80/58 59/82/59 57/78/57
f  59/82/59 60/83/60 20/81/20
f  59/82/59 20/81/20 57/78/57
f  59/82/59 61/84/61 60/83/60
f  61/84/61 59/82/59 58/80/58
f  60/83/60 61/84/61 62/85/62
f  21/86/21 62/85/62 61/84/61
f  58/80/58 21/86/21 61/84/61
f  62/85/62 63/87/63 60/83/60
f  23/88/23 62/85/62 21/86/21
f  23/88/23 25/89/25 62/85/62
f  62/85/62 25/89/25 63/87/63
f  60/83/60 63/87/63 64/90/64
f  65/91/65 66/92/66 63/87/63
f  63/87/63 66/92/66 64/90/64
f  63/87/63 25/89/25 65/91/65
f  65/91/65 25/89/25 27/93/27
f  27/93/27 29/94/29 65/91/65
f  67/95/67 68/96/68 65/91/65
f  65/91/65 68/96/68 66/92/66
f  68/96/68 26/97/26 66/92/66
f  64/90/64 66/92/66 24/98/24
f  24/98/24 66/92/66 26/97/26
f  24/98/24 60/83/60 64/90/64
f  22/99/22 60/83/60 24/98/24
f  20/81/20 60/83/60 22/99/22
f  28/100/28 26/97/26 68/96/68
f  68/96/68 67/95/67 69/101/69
f  28/100/28 68/96/68 30/102/30
f  29/94/29 31/103/31 67/95/67
f  69/101/69 67/95/67 70/104/70
f  65/91/65 29/94/29 67/95/67
f  67/95/67 31/103/31 70/104/70
f  69/101/69 70/104/70 71/105/71
f  70/104/70 31/103/31 72/106/72
f  71/105/71 70/104/70 72/106/72
f  71/105/71 32/107/32 69/101/69
f  72/106/72 31/103/31 73/108/73
f  32/107/32 72/106/72 73/108/73
f  71/105/71 72/106/72 32/107/32
f  30/102/30 68/96/68 69/101/69
f  69/101/69 32/107/32 30/102/30
f  19/109/19 58/80/58 17/71/17
f  17/71/17 58/80/58 56/74/56
f  19/109/19 21/86/21 58/80/58
f  53/69/53 17/71/17 56/74/56
f  10/66/10 52/65/52 12/77/12
f  73/110/73 31/31/31 32/32/32
f  74/111/74 75/112/75 76/113/76
f  74/111/74 77/114/77 75/112/75
f  78/115/78 79/116/79 74/111/74
f  74/111/74 79/116/79 77/114/77
f  76/113/76 78/115/78 74/111/74
f  76/113/76 75/112/75 80/117/80
f  78/115/78 81/118/81 82/119/82
f  81/118/81 78/115/78 76/113/76
f  82/119/82 79/116/79 78/115/78
f  82/119/82 81/118/81 83/120/83
f  81/118/81 76/113/76 83/120/83
f  83/120/83 76/113/76 80/117/80
f  79/116/79 84/121/84 77/114/77
f  85/122/85 79/116/79 82/119/82
f  85/122/85 84/121/84 79/116/79
f  84/121/84 85/122/85 75/123/75
f  75/123/75 85/122/85 82/124/82
f  82/124/82 80/125/80 75/123/75
f  83/126/83 80/125/80 82/124/82
f  75/112/75 77/114/77 84/121/84
f  86/127/86 87/128/87 88/129/88
f  88/129/88 87/128/87 89/130/89
f  90/131/90 91/132/91 92/133/92
f  90/131/90 86/134/86 91/132/91
f  92/133/92 91/132/91 93/135/93
f  92/133/92 89/136/89 87/137/87
f  92/133/92 87/137/87 90/131/90
f  93/135/93 89/136/89 92/133/92
f  89/136/89 93/135/93 94/138/94
f  90/131/90 87/137/87 86/134/86
f  91/132/91 86/134/86 88/139/88
f  91/132/91 88/139/88 94/138/94
f  93/135/93 91/132/91 94/138/94
f  88/129/88 89/130/89 94/140/94
f  95/141/95 96/142/96 97/143/97
f  98/144/98 96/142/96 95/141/95
f  99/145/99 98/144/98 95/141/95
f  97/143/97 99/145/99 95/141/95
f  97/143/97 96/142/96 100/146/100
f  101/147/101 99/145/99 97/143/97
f  102/148/102 98/144/98 99/145/99
f  99/145/99 101/147/101 103/149/103
f  103/149/103 102/148/102 99/145/99
f  103/149/103 101/147/101 104/150/104
f  105/151/105 106/152/106 101/147/101
f  101/147/101 106/152/106 104/150/104
f  97/143/97 105/151/105 101/147/101
f  107/153/107 102/148/102 103/149/103
f  108/154/108 102/148/102 107/153/107
f  109/155/109 108/154/108 110/156/110
f  110/156/110 108/154/108 111/157/111
f  109/155/109 102/148/102 108/154/108
f  102/148/102 109/155/109 98/144/98
f  98/144/98 109/155/109 112/158/112
f  112/158/112 109/155/109 113/159/113
f  113/159/113 109/155/109 110/156/110
f  110/156/110 114/160/114 113/159/113
f  111/157/111 115/161/115 110/156/110
f  110/156/110 115/161/115 114/160/114
f  113/159/113 114/160/114 116/162/116
f  105/151/105 116/162/116 114/160/114
f  105/151/105 114/160/114 106/152/106
f  106/152/106 114/160/114 115/161/115
f  116/162/116 117/163/117 113/159/113
f  113/159/113 117/163/117 118/164/118
f  117/163/117 116/162/116 119/165/119
f  120/166/120 116/162/116 105/151/105
f  120/166/120 105/151/105 97/143/97
f  119/165/119 116/162/116 120/166/120
f  100/146/100 119/165/119 97/143/97
f  97/143/97 119/165/119 120/166/120
f  118/164/118 112/158/112 113/159/113
f  121/167/121 112/158/112 118/164/118
f  112/158/112 121/167/121 98/144/98
f  122/168/122 96/142/96 98/144/98
f  98/144/98 121/167/121 122/168/122
f  121/169/121 108/170/108 122/171/122
f  121/169/121 118/172/118 108/170/108
f  122/171/122 108/170/108 107/173/107
f  108/170/108 118/172/118 111/174/111
f  96/175/96 122/171/122 103/176/103
f  103/176/103 122/171/122 107/173/107
f  96/175/96 103/176/103 100/177/100
f  100/177/100 103/176/103 104/178/104
f  104/178/104 106/179/106 100/177/100
f  100/177/100 106/179/106 119/180/119
f  119/180/119 106/179/106 117/181/117
f  117/181/117 106/179/106 115/182/115
f  117/181/117 115/182/115 118/172/118
f  118/172/118 115/182/115 111/174/111
f  123/183/123 124/184/124 125/185/125
f  126/186/126 123/183/123 127/187/127
f  125/185/125 124/184/124 128/188/128
f  124/184/124 123/183/123 126/186/126
f  128/188/128 129/189/129 125/185/125
f  130/190/130 129/189/129 128/188/128
f  125/191/125 129/192/129 123/193/123
f  123/193/123 129/192/129 131/194/131
f  123/193/123 131/194/131 127/195/127
f  127/195/127 131/194/131 132/196/132
f  131/194/131 133/197/133 132/196/132
f  134/198/134 133/197/133 131/194/131
f  135/199/135 136/200/136 133/197/133
f  133/197/133 126/201/126 135/199/135
f  134/198/134 126/201/126 133/197/133
f  135/199/135 126/201/126 137/202/137
f  138/203/138 139/204/139 135/199/135
f  135/199/135 139/204/139 136/200/136
f  137/202/137 138/203/138 135/199/135
f  140/205/140 138/203/138 137/202/137
f  139/204/139 138/203/138 141/206/141
f  141/206/141 138/203/138 142/207/142
f  138/203/138 140/205/140 142/207/142
f  141/206/141 143/208/143 139/204/139
f  144/209/144 139/204/139 143/208/143
f  145/210/145 146/211/146 141/206/141
f  141/206/141 146/211/146 147/212/147
f  147/212/147 143/208/143 141/206/141
f  142/207/142 145/210/145 141/206/141
f  142/207/142 140/205/140 148/213/148
f  149/214/149 145/210/145 142/207/142
f  148/213/148 149/214/149 142/207/142
f  145/210/145 150/215/150 146/211/146
f  149/214/149 150/215/150 145/210/145
f  150/215/150 149/214/149 148/213/148
f  133/197/133 136/200/136 132/196/132
f  127/195/127 136/200/136 144/209/144
f  136/200/136 139/204/139 144/209/144
f  132/196/132 136/200/136 127/195/127
f  130/216/130 134/198/134 129/192/129
f  129/192/129 134/198/134 131/194/131
f  124/217/124 126/201/126 134/198/134
f  130/216/130 124/217/124 134/198/134
f  128/218/128 124/217/124 130/216/130
f  127/187/127 144/219/144 126/186/126
f  126/186/126 144/219/144 137/220/137
f  144/219/144 143/221/143 137/220/137
f  137/220/137 143/221/143 140/222/140
f  143/221/143 147/223/147 140/222/140
f  140/222/140 147/223/147 148/224/148
f  147/223/147 146/225/146 148/224/148
f  148/224/148 146/225/146 150/226/150

